<svg width="40" height="40" viewBox="0 0 40 40" fill="none" xmlns="http://www.w3.org/2000/svg">
<path d="M19.9385 22.8749C18.294 22.8749 16.957 21.5385 16.957 19.8945C16.957 18.2506 18.294 16.9141 19.9385 16.9141C20.2538 16.9141 20.5614 16.9635 20.8577 17.0584L26.8929 11.0255L26.7068 10.1143C26.4903 9.05501 26.8169 7.96536 27.5803 7.19843L31.4772 3.30304C31.6101 3.17016 31.7886 3.09802 31.9747 3.09802C32.309 3.09802 32.6014 3.33342 32.666 3.66373L33.2927 6.70866L36.3388 7.33511C36.5932 7.38826 36.7983 7.5743 36.8743 7.82488C36.9503 8.07546 36.8819 8.34123 36.6958 8.52727L32.7989 12.4189C32.1912 13.0263 31.386 13.3604 30.5277 13.3604C30.3112 13.3604 30.0947 13.3377 29.882 13.2959L28.9704 13.1099L22.8403 19.2301C22.8897 19.4503 22.9163 19.6743 22.9163 19.8945C22.9163 21.5385 21.5793 22.8749 19.9385 22.8749Z" fill="#FCFCFC"/>
<path fill-rule="evenodd" clip-rule="evenodd" d="M33.2539 11.3559C32.0358 9.53513 30.45 7.97765 28.6028 6.78922L27.8844 7.50739C27.2235 8.16801 26.9425 9.11718 27.1286 10.0322L27.1503 10.1373C28.2096 10.894 29.1442 11.813 29.9169 12.8574L29.9695 12.8683C30.1557 12.9063 30.3418 12.9252 30.5279 12.9252C31.2571 12.9252 31.9674 12.6405 32.4953 12.1128L33.2539 11.3559ZM30.5393 13.7833C31.5059 13.7793 32.4153 13.4 33.0992 12.7164L33.7204 12.0966C35.1159 14.4538 35.9169 17.199 35.9169 20.1269C35.9169 28.88 28.7586 36 19.9584 36C11.1583 36 4 28.88 4 20.1269C4 11.3739 11.1583 4.25391 19.9584 4.25391C22.8243 4.25391 25.5161 5.00904 27.8432 6.32979L27.2767 6.89612C26.5688 7.60069 26.193 8.55175 26.2107 9.52821C24.3754 8.45288 22.238 7.83559 19.9584 7.83559C13.1452 7.83559 7.60096 13.3501 7.60096 20.1269C7.60096 26.9037 13.1452 32.4183 19.9584 32.4183C26.7717 32.4183 32.3119 26.9077 32.3159 20.1269C32.3159 17.8077 31.6666 15.6364 30.5393 13.7833Z" fill="#FCFCFC"/>
<path fill-rule="evenodd" clip-rule="evenodd" d="M27.3652 14.0982C26.9252 13.5645 26.4283 13.0791 25.8837 12.6511L23.1122 15.4215C23.6928 15.8072 24.1983 16.2963 24.6019 16.8621L27.3652 14.0982ZM25.0562 17.6166L27.8845 14.7894C28.925 16.313 29.5336 18.1508 29.5336 20.1271C29.5336 25.3778 25.2375 29.6509 19.9585 29.6509C14.6796 29.6509 10.3835 25.3778 10.3835 20.1271C10.3835 14.8763 14.6796 10.6033 19.9585 10.6033C21.8782 10.6033 23.6678 11.1683 25.1682 12.1399L22.3236 14.9834C21.6032 14.655 20.8021 14.4718 19.9585 14.4718C16.8191 14.4718 14.2686 17.0129 14.2686 20.1313C14.2686 23.2539 16.8233 25.7908 19.9585 25.7908C23.0937 25.7908 25.6485 23.2497 25.6485 20.1313C25.6485 19.2284 25.4353 18.3744 25.0562 17.6166Z" fill="#FCFCFC"/>
</svg>
