<svg width="40" height="40" viewBox="0 0 40 40" fill="none" xmlns="http://www.w3.org/2000/svg">
<path d="M33.05 12.5L29.2666 8.71665C29.3833 8.01665 29.5666 7.36665 29.8 6.79998C29.9833 6.36665 30.05 5.86665 29.95 5.34998C29.7333 4.14998 28.5666 3.31665 27.3333 3.33331C24.6833 3.38331 22.3333 4.68331 20.8333 6.66665H12.5C7.43331 6.66665 3.33331 10.7666 3.33331 15.8333C3.33331 19.5833 5.61665 28.3 6.79998 32.5666C7.19998 34 8.51665 35 10.0166 35H13.3333C15.1666 35 16.6666 33.5 16.6666 31.6666H20C20 33.5 21.5 35 23.3333 35H26.6833C28.15 35 29.45 34.0333 29.8833 32.6166L31.9666 25.6833L35.5333 24.4833C36.2166 24.25 36.6666 23.6166 36.6666 22.9V14.1666C36.6666 13.25 35.9166 12.5 35 12.5H33.05ZM20 15H15C14.0833 15 13.3333 14.25 13.3333 13.3333C13.3333 12.4166 14.0833 11.6666 15 11.6666H20C20.9166 11.6666 21.6666 12.4166 21.6666 13.3333C21.6666 14.25 20.9166 15 20 15ZM26.6666 18.3333C25.75 18.3333 25 17.5833 25 16.6666C25 15.75 25.75 15 26.6666 15C27.5833 15 28.3333 15.75 28.3333 16.6666C28.3333 17.5833 27.5833 18.3333 26.6666 18.3333Z" fill="#FCFCFC"/>
</svg>
