<svg width="30" height="45" viewBox="0 0 30 45" fill="none" xmlns="http://www.w3.org/2000/svg">
<path fill-rule="evenodd" clip-rule="evenodd" d="M7.49583 38.5043C6.56175 40.9533 7.74174 43.7146 10.1314 44.672C12.5211 45.6293 15.2156 44.42 16.1496 41.9709L16.3634 41.4105C14.5688 41.1871 12.8192 40.6967 11.1714 39.9621C9.92693 39.4078 8.76994 38.7289 7.70903 37.9453L7.49583 38.5043ZM29.4665 7.05607C28.3034 6.19739 27.0503 5.4817 25.735 4.92033C25.6119 4.86759 25.4848 4.81491 25.3535 4.76228C23.8593 4.16374 22.3355 3.77697 20.8132 3.58775L21.0264 3.02907C21.9604 0.580013 24.655 -0.629288 27.0447 0.328008C29.4343 1.28531 30.6143 4.04668 29.6803 6.49573L29.4665 7.05607Z" fill="#1A224C"/>
<path fill-rule="evenodd" clip-rule="evenodd" d="M25.7373 4.92146C25.6135 4.86833 25.4855 4.81529 25.353 4.76228C15.7944 0.933111 5.01659 5.77032 1.28022 15.5665C-2.37091 25.1392 2.05292 35.9051 11.1761 39.9643C12.8225 40.6976 14.5703 41.1873 16.363 41.4105L29.4663 7.05609C28.304 6.19796 27.0517 5.48266 25.7373 4.92146Z" fill="#FFCC00"/>
<path d="M23.9897 21.4141L20.4296 30.7479C18.9588 31.1944 17.4217 31.3121 16.3043 31.0331C16.0778 30.9828 15.9498 30.8631 15.9689 30.7278L16.0427 27.1241C16.0163 26.8827 16.1395 26.7515 16.3569 26.7806C17.5816 26.8893 18.9363 26.7624 19.7802 26.4596C20.4679 26.1509 20.7831 25.6297 20.5743 25.1409C20.391 24.7118 19.5663 24.7546 18.4814 24.8108C16.396 24.9187 13.349 25.0763 12.047 22.0293C10.9755 19.5221 11.9108 16.9752 14.4 15.4275L14.0186 14.535C13.946 14.3651 14.0114 14.1584 14.1833 14.0813L15.5159 13.4832C15.7093 13.3964 15.9018 13.4873 15.9744 13.6572L16.3467 14.5284C17.7734 14.0907 19.4925 13.9776 20.9279 14.2197C21.1452 14.2488 21.2823 14.3898 21.2633 14.525L21.1895 18.1287C21.2158 18.3701 21.0926 18.5015 20.8752 18.4724C19.5679 18.35 18.1521 18.4536 17.3726 18.7275C16.7064 19.0266 16.4036 19.5169 16.6034 19.9844C16.7862 20.4122 17.6104 20.3662 18.6964 20.3058C20.2972 20.2168 22.4671 20.0961 23.9897 21.4141Z" fill="#1A224C"/>
</svg>
