<svg width="43" height="22" viewBox="0 0 43 22" fill="none" xmlns="http://www.w3.org/2000/svg">
<path fill-rule="evenodd" clip-rule="evenodd" d="M4.3728 13.1863C1.99808 13.1851 0.0406461 15.1533 0.000618538 17.5825C-0.0392501 20.0116 1.8535 21.9817 4.22822 21.9829L4.77165 21.9831C4.38206 20.3254 4.23314 18.6176 4.32375 16.9176C4.39173 15.6339 4.59344 14.3854 4.91479 13.1866L4.3728 13.1863ZM38.0839 21.9997C38.4358 20.6855 38.6377 19.34 38.6889 17.9914C38.6938 17.8651 38.6975 17.7353 38.6997 17.6018C38.7246 16.0829 38.5607 14.6092 38.23 13.203L38.7718 13.2034C41.1465 13.2045 43.0393 15.1748 42.9994 17.6038C42.9594 20.0329 41.002 22.0011 38.6272 22L38.0839 21.9997Z" fill="#A0A3BD"/>
<path fill-rule="evenodd" clip-rule="evenodd" d="M38.6888 17.994C38.6939 17.867 38.6975 17.7362 38.6997 17.6016C38.8594 7.88529 31.2884 0.00472835 21.7893 1.73295e-06C12.507 -0.00460853 4.81842 7.51317 4.32349 16.9227C4.23352 18.621 4.38252 20.327 4.77169 21.9831L38.0839 21.9997C38.4357 20.6865 38.6375 19.3417 38.6888 17.994Z" fill="#D9DBE9"/>
<path d="M24.1613 21.9927L15.1107 21.9881C14.2583 20.8409 13.663 19.5248 13.5388 18.4456C13.5084 18.2291 13.5685 18.0759 13.6892 18.0473L16.7642 16.9019C16.96 16.7976 17.1108 16.8622 17.1563 17.0636C17.4592 18.1803 18.0035 19.3324 18.5319 19.975C19.0151 20.4778 19.5581 20.5807 19.9045 20.2324C20.2087 19.9265 19.9065 19.2136 19.5092 18.2756C18.7453 16.4727 17.6293 13.8384 19.7893 11.6666C21.5665 9.8795 24.0245 9.84879 26.1376 11.5243L26.7702 10.8882C26.8908 10.767 27.0868 10.7553 27.2075 10.881L28.1436 11.8553C28.2795 11.9968 28.2646 12.1971 28.1441 12.3182L27.5266 12.9392C28.3572 14.0504 29.0074 15.5285 29.2653 16.8758C29.3107 17.0772 29.2355 17.2455 29.1149 17.2741L26.0399 18.4195C25.8441 18.5239 25.6931 18.4593 25.6476 18.2578C25.3297 17.0637 24.7854 15.8499 24.3022 15.2544C23.8341 14.7673 23.3213 14.665 22.9899 14.9982C22.6867 15.3031 22.9914 16.0145 23.3928 16.952C23.9843 18.334 24.7862 20.2071 24.1613 21.9927Z" fill="#A0A3BD"/>
</svg>
