<svg width="734" height="171" viewBox="0 0 734 171" fill="none" xmlns="http://www.w3.org/2000/svg">
<path d="M199.56 0.750167C199.056 0.269253 198.38 0 197.675 0H166.01C165.275 0 164.57 0.285725 164.052 0.794039C163.779 1.06166 163.566 1.38228 163.428 1.73515L99.8733 168.864C99.6467 169.443 99.789 170.098 100.237 170.537C100.539 170.833 100.95 171 101.378 171H137.152C137.863 171 138.545 170.723 139.047 170.231C139.326 169.958 139.54 169.627 139.672 169.263L151.586 132.991H212.161L224.07 169.25C224.206 169.622 224.426 169.96 224.713 170.238C225.217 170.726 225.899 171 226.609 171H262.385C262.813 171 263.224 170.833 263.526 170.537C263.974 170.098 264.116 169.443 263.889 168.864L200.194 1.69166C200.055 1.33688 199.839 1.01571 199.56 0.750167ZM162.429 99.7513L181.81 43.9305L201.255 99.7513H162.429Z" fill="#1A224C"/>
<path d="M428.945 52.2521C418.321 52.4746 407.928 55.3322 398.737 60.5582V57.8984C398.737 57.3271 398.501 56.7799 398.083 56.3803C397.677 55.9917 397.13 55.774 396.562 55.774H366.809C366.251 55.774 365.717 55.9927 365.326 56.3811C364.943 56.761 364.729 57.2726 364.729 57.8055V117.61L344.14 130.576C336.776 135.923 327.866 138.832 318.701 138.882C309.019 138.882 300.529 134.207 300.529 115.132V85.5H343.281C343.831 85.5 344.358 85.2864 344.745 84.9063C345.131 84.528 345.348 84.0158 345.348 83.4818V59.0315C345.348 58.4986 345.134 57.987 344.751 57.6071C344.36 57.2187 343.825 57 343.268 57H300.529V30.7215C300.529 30.2024 300.342 29.6996 300.002 29.3006C299.57 28.7933 298.93 28.5 298.254 28.5H268.683C268.133 28.5 267.606 28.7136 267.219 29.0937C266.833 29.472 266.616 29.9842 266.616 30.5181V56.9688H248.091C247.533 56.9688 246.999 57.1875 246.608 57.5759C246.225 57.9558 246.011 58.4674 246.011 59.0003V83.4818C246.011 84.0158 246.228 84.528 246.613 84.9063C247.001 85.2864 247.528 85.5 248.077 85.5H266.616V118.67C266.616 149.541 282.356 170.922 318.701 170.922C328.011 170.493 337.11 168.056 345.348 163.785L364.729 152.159V168.982C364.729 169.516 364.946 170.028 365.331 170.406C365.719 170.786 366.246 171 366.795 171H396.591C397.14 171 397.667 170.786 398.055 170.406C398.441 170.028 398.657 169.516 398.657 168.982V96.0579C402.042 92.4068 406.151 89.4706 410.732 87.4289C415.314 85.3871 420.272 84.2827 425.304 84.1831C431.115 84.1831 441.311 84.7518 448.642 90.0813C449.169 90.4646 449.91 90.4347 450.374 89.9799C450.622 89.7372 450.755 89.405 450.743 89.0625V56.8805C443.956 53.6607 436.483 52.074 428.945 52.2521Z" fill="#1A224C"/>
<path d="M515.547 52.2522C479.202 52.2522 456.18 78.3705 456.18 110.426C456.18 144.866 482.843 171 522.813 171C538.569 171 555.533 166.325 566.44 159.125V130.055C566.44 129.71 566.3 129.379 566.051 129.135C565.574 128.668 564.816 128.623 564.277 129.02C552.33 137.821 537.779 142.585 522.813 142.575C507.073 142.575 493.749 136.638 490.109 120.01H566.618C567.277 120.01 567.91 119.754 568.375 119.297C568.69 118.989 568.916 118.602 569.018 118.178C570.065 113.803 570.065 110.172 570.065 103.382C570.112 80.7081 550.684 52.2522 515.547 52.2522ZM491.317 96.1827C494.958 87.8766 501.015 80.7548 515.547 80.7548C526.454 80.7548 534.928 87.8766 536.216 96.1827H491.317Z" fill="#1A224C"/>
<path d="M649.69 55.8053C648.985 55.8053 648.309 56.0795 647.811 56.5674C647.528 56.8452 647.313 57.1823 647.182 57.5532L624.375 122.301L601.556 57.5655C601.422 57.1867 601.201 56.8429 600.91 56.561C600.409 56.0768 599.733 55.8053 599.029 55.8053H565.67C565.246 55.8053 564.84 55.9701 564.54 56.2633C564.091 56.704 563.953 57.3638 564.19 57.9413L608.409 169.304C608.547 169.642 608.754 169.948 609.017 170.206C609.535 170.714 610.24 171 610.975 171H637.758C638.493 171 639.198 170.714 639.717 170.206C639.979 169.948 640.186 169.642 640.324 169.304L684.554 57.9537C684.794 57.3694 684.652 56.7017 684.194 56.2587C683.894 55.9682 683.489 55.8053 683.066 55.8053H649.69Z" fill="#1A224C"/>
<path d="M696.081 59.3739C695.532 59.3739 695.005 59.5876 694.617 59.9676C694.232 60.3459 694.015 60.8581 694.015 61.3921V168.982C694.015 169.516 694.232 170.028 694.617 170.406C695.005 170.786 695.532 171 696.081 171H725.863C726.412 171 726.938 170.789 727.327 170.412C727.722 170.03 727.943 169.511 727.943 168.969V61.4053C727.943 60.8632 727.722 60.3437 727.327 59.9622C726.938 59.5853 726.412 59.3739 725.863 59.3739H696.081Z" fill="#1A224C"/>
<path d="M713.039 0.835925C712.493 0.300797 711.752 0 710.978 0C710.205 0 709.463 0.300797 708.917 0.835925L688.812 20.542C688.264 21.0792 687.957 21.8066 687.957 22.5649C687.957 23.3235 688.265 24.0512 688.813 24.5885L708.917 44.2792C709.463 44.8141 710.205 45.1148 710.978 45.1148C711.752 45.1148 712.494 44.8141 713.04 44.2792L733.144 24.5885C733.692 24.0512 734 23.3235 734 22.5649C734 21.8066 733.692 21.0792 733.144 20.542L713.039 0.835925Z" fill="#1A224C"/>
<path fill-rule="evenodd" clip-rule="evenodd" d="M28.488 146.316C24.9378 155.622 29.4226 166.116 38.5049 169.754C47.5873 173.391 57.8279 168.796 61.3781 159.49L62.1903 157.36C55.3696 156.511 48.7203 154.647 42.4574 151.856C37.7277 149.75 33.3304 147.17 29.2982 144.192L28.488 146.316ZM111.991 26.8131C107.57 23.5501 102.808 20.8305 97.8087 18.6973C97.3409 18.4968 96.8578 18.2966 96.3588 18.0967C90.6796 15.8222 84.8884 14.3525 79.1027 13.6335L79.9129 11.5105C83.4628 2.20405 93.704 -2.39129 102.786 1.24643C111.868 4.88418 116.353 15.3774 112.803 24.6838L111.991 26.8131Z" fill="#1A224C"/>
<path fill-rule="evenodd" clip-rule="evenodd" d="M97.8183 18.7016C97.3478 18.4997 96.8613 18.2982 96.358 18.0967C60.029 3.5459 19.0663 21.9273 4.86567 59.1528C-9.01099 95.5292 7.80242 136.439 42.4763 151.865C48.7336 154.651 55.3764 156.512 62.1902 157.36L111.991 26.8132C107.574 23.5523 102.814 20.8342 97.8183 18.7016Z" fill="#FFCC00"/>
<path d="M91.1771 81.3735L77.6464 116.842C72.0563 118.539 66.2144 118.986 61.9674 117.926C61.1069 117.735 60.6203 117.28 60.6928 116.765L60.9732 103.071C60.8731 102.154 61.3414 101.656 62.1675 101.766C66.8222 102.179 71.9707 101.697 75.1782 100.547C77.7919 99.3733 78.9898 97.3927 78.1963 95.5354C77.4995 93.905 74.3652 94.0676 70.2419 94.2808C62.3161 94.6909 50.7356 95.2901 45.787 83.7115C41.7148 74.1841 45.2692 64.5056 54.7299 58.6244L53.2805 55.2331C53.0044 54.5872 53.253 53.802 53.9065 53.5088L58.971 51.2362C59.7062 50.9063 60.4378 51.2516 60.7139 51.8975L62.1288 55.208C67.5511 53.5447 74.0847 53.1148 79.5404 54.0348C80.3659 54.1452 80.8873 54.6812 80.8149 55.1949L80.5344 68.8891C80.6346 69.8063 80.1661 70.3056 79.3399 70.195C74.3714 69.73 68.9905 70.1237 66.028 71.1643C63.4957 72.3012 62.3451 74.1641 63.1043 75.9408C63.799 77.5663 66.9314 77.3915 71.059 77.1619C77.1432 76.8238 85.3901 76.3652 91.1771 81.3735Z" fill="#1A224C"/>
</svg>
