<svg width="127" height="30" viewBox="0 0 127 30" fill="none" xmlns="http://www.w3.org/2000/svg">
<path d="M34.5289 0.131608C34.4417 0.0472374 34.3246 0 34.2027 0H28.7238C28.5966 0 28.4747 0.0501271 28.385 0.139305C28.3378 0.186256 28.301 0.242505 28.2771 0.304412L17.2806 29.6253C17.2414 29.7269 17.266 29.8418 17.3435 29.9188C17.3958 29.9708 17.4669 30 17.541 30H23.7306C23.8537 30 23.9717 29.9515 24.0586 29.8651C24.1069 29.8171 24.1438 29.7591 24.1668 29.6952L26.2281 23.3318H36.7091L38.7697 29.693C38.7932 29.7583 38.8312 29.8175 38.8809 29.8663C38.9682 29.952 39.0861 30 39.209 30H45.3991C45.4732 30 45.5442 29.9708 45.5965 29.9188C45.674 29.8418 45.6986 29.7269 45.6593 29.6253L34.6385 0.296782C34.6144 0.23454 34.577 0.178194 34.5289 0.131608ZM28.1043 17.5002L31.4576 7.7071L34.822 17.5002H28.1043Z" fill="#FFCC00"/>
<path d="M74.218 9.16704C72.3799 9.20606 70.5817 9.7074 68.9913 10.6242V10.1576C68.9913 10.0574 68.9505 9.96139 68.8782 9.89128C68.8079 9.8231 68.7133 9.78492 68.6149 9.78492H63.467C63.3705 9.78492 63.278 9.82329 63.2104 9.89142C63.1442 9.95808 63.1071 10.0478 63.1071 10.1413V20.6334L59.5446 22.908C58.2705 23.8461 56.7288 24.3565 55.1432 24.3652C53.4678 24.3652 51.9989 23.545 51.9989 20.1987V15H59.3961C59.4912 15 59.5823 14.9625 59.6494 14.8958C59.7162 14.8295 59.7537 14.7396 59.7537 14.6459V10.3564C59.7537 10.2629 59.7166 10.1732 59.6504 10.1065C59.5827 10.0384 59.4903 10 59.3938 10H51.9989V5.38974C51.9989 5.29866 51.9666 5.21046 51.9078 5.14045C51.833 5.05146 51.7222 5 51.6053 5H46.4887C46.3936 5 46.3025 5.03748 46.2354 5.10416C46.1686 5.17052 46.1311 5.26038 46.1311 5.35406V9.99453H42.9259C42.8294 9.99453 42.7369 10.0329 42.6692 10.101C42.603 10.1677 42.5659 10.2574 42.5659 10.3509V14.6459C42.5659 14.7396 42.6034 14.8295 42.6702 14.8958C42.7373 14.9625 42.8285 15 42.9235 15H46.1311V20.8193C46.1311 26.2353 48.8546 29.9863 55.1432 29.9863C56.754 29.9111 58.3283 29.4836 59.7537 28.7341L63.1071 26.6946V29.6459C63.1071 29.7396 63.1446 29.8295 63.2113 29.8958C63.2784 29.9625 63.3696 30 63.4646 30H68.62C68.715 30 68.8062 29.9625 68.8733 29.8958C68.94 29.8295 68.9775 29.7396 68.9775 29.6459V16.8523C69.5631 16.2117 70.2741 15.6966 71.0668 15.3384C71.8595 14.9802 72.7174 14.7864 73.5881 14.769C74.5935 14.769 76.3576 14.8687 77.6261 15.8037C77.7174 15.871 77.8455 15.8657 77.9258 15.786C77.9686 15.7434 77.9917 15.6851 77.9896 15.625V9.97903C76.8152 9.41415 75.5223 9.13579 74.218 9.16704Z" fill="#FFCC00"/>
<path d="M89.2023 9.16706C82.9137 9.16706 78.9304 13.7492 78.9304 19.373C78.9304 25.4151 83.5437 30 90.4595 30C93.1856 30 96.1209 29.1798 98.008 27.9167V22.8166C98.008 22.7561 97.9838 22.6981 97.9407 22.6552C97.8582 22.5733 97.7271 22.5654 97.6338 22.6351C95.5667 24.1791 93.049 25.0149 90.4595 25.0132C87.7361 25.0132 85.4308 23.9716 84.8008 21.0544H98.0388C98.1529 21.0544 98.2623 21.0094 98.3429 20.9294C98.3974 20.8752 98.4365 20.8075 98.454 20.733C98.6352 19.9655 98.6352 19.3284 98.6352 18.1373C98.6435 14.1593 95.2818 9.16706 89.2023 9.16706ZM85.0099 16.8742C85.6399 15.4169 86.688 14.1675 89.2023 14.1675C91.0894 14.1675 92.5557 15.4169 92.7785 16.8742H85.0099Z" fill="#FFCC00"/>
<path d="M112.412 9.7904C112.29 9.7904 112.173 9.83851 112.087 9.92411C112.038 9.97285 112.001 10.032 111.978 10.097L108.032 21.4563L104.084 10.0992C104.061 10.0327 104.023 9.97245 103.972 9.92298C103.886 9.83804 103.769 9.7904 103.647 9.7904H97.8748C97.8014 9.7904 97.7311 9.81931 97.6794 9.87076C97.6016 9.94808 97.5777 10.0638 97.6187 10.1651L105.27 29.7025C105.294 29.7617 105.329 29.8155 105.375 29.8607C105.465 29.9499 105.587 30 105.714 30H110.348C110.475 30 110.597 29.9499 110.687 29.8607C110.732 29.8155 110.768 29.7617 110.792 29.7025L118.445 10.1673C118.486 10.0648 118.462 9.94766 118.382 9.86995C118.33 9.81898 118.26 9.7904 118.187 9.7904H112.412Z" fill="#FFCC00"/>
<path d="M120.439 10.4165C120.344 10.4165 120.253 10.454 120.186 10.5206C120.119 10.587 120.082 10.6769 120.082 10.7705V29.6459C120.082 29.7396 120.119 29.8295 120.186 29.8958C120.253 29.9625 120.344 30 120.439 30H125.592C125.687 30 125.778 29.9629 125.845 29.8968C125.914 29.8299 125.952 29.7387 125.952 29.6436V10.7729C125.952 10.6778 125.914 10.5866 125.845 10.5197C125.778 10.4536 125.687 10.4165 125.592 10.4165H120.439Z" fill="#FFCC00"/>
<path d="M123.373 0.146654C123.279 0.0527715 123.151 0 123.017 0C122.883 0 122.755 0.0527715 122.66 0.146654L119.181 3.60387C119.087 3.69811 119.033 3.82572 119.033 3.95875C119.033 4.09185 119.087 4.21952 119.182 4.31377L122.66 7.76828C122.755 7.86213 122.883 7.91488 123.017 7.91488C123.151 7.91488 123.279 7.86213 123.373 7.76828L126.852 4.31377C126.947 4.21952 127 4.09185 127 3.95875C127 3.82572 126.947 3.69811 126.852 3.60387L123.373 0.146654Z" fill="#FFCC00"/>
<path fill-rule="evenodd" clip-rule="evenodd" d="M4.92907 25.6695C4.31481 27.3022 5.09078 29.1431 6.66224 29.7814C8.23371 30.4195 10.0056 29.6133 10.6199 27.9806L10.7604 27.607C9.58026 27.4581 8.42976 27.1311 7.34611 26.6414C6.52777 26.2719 5.76693 25.8193 5.06927 25.2969L4.92907 25.6695ZM19.3771 4.70404C18.6122 4.1316 17.7882 3.65447 16.9232 3.28022C16.8423 3.24506 16.7587 3.20994 16.6724 3.17485C15.6897 2.77583 14.6877 2.51798 13.6867 2.39184L13.8268 2.01938C14.4411 0.386676 16.213 -0.419525 17.7845 0.218672C19.3559 0.856874 20.1319 2.69779 19.5177 4.33049L19.3771 4.70404Z" fill="#4E4B66"/>
<path fill-rule="evenodd" clip-rule="evenodd" d="M16.925 3.28104C16.8436 3.24561 16.7594 3.21025 16.6723 3.17492C10.3865 0.622135 3.29894 3.84694 0.84188 10.3777C-1.55912 16.7596 1.35001 23.9368 7.34944 26.6429C8.43211 27.1318 9.58148 27.4583 10.7604 27.6071L19.3772 4.70412C18.6129 4.13203 17.7893 3.65517 16.925 3.28104Z" fill="#FFCC00"/>
<path d="M15.7759 14.2761L13.4347 20.4986C12.4675 20.7963 11.4567 20.8747 10.7219 20.6888C10.573 20.6552 10.4888 20.5754 10.5013 20.4852L10.5499 18.0827C10.5326 17.9218 10.6136 17.8344 10.7565 17.8538C11.5619 17.9262 12.4527 17.8416 13.0077 17.6398C13.4599 17.4339 13.6672 17.0865 13.5299 16.7606C13.4093 16.4746 12.867 16.5031 12.1536 16.5405C10.7822 16.6125 8.7785 16.7176 7.92228 14.6862C7.21769 13.0148 7.8327 11.3168 9.46962 10.285L9.21884 9.69005C9.17108 9.57672 9.21408 9.43898 9.32715 9.38754L10.2034 8.98883C10.3306 8.93096 10.4572 8.99153 10.505 9.10485L10.7498 9.68565C11.688 9.39383 12.8185 9.31842 13.7624 9.47981C13.9053 9.49919 13.9955 9.59323 13.983 9.68334L13.9344 12.0858C13.9518 12.2467 13.8707 12.3343 13.7278 12.3149C12.8681 12.2334 11.9371 12.3024 11.4245 12.485C10.9863 12.6844 10.7872 13.0113 10.9186 13.323C11.0388 13.6081 11.5808 13.5775 12.2949 13.5372C13.3477 13.4779 14.7746 13.3974 15.7759 14.2761Z" fill="#4E4B66"/>
</svg>
