<svg width="130" height="31" viewBox="0 0 130 31" fill="none" xmlns="http://www.w3.org/2000/svg">
<path d="M35.3445 0.135995C35.2553 0.048812 35.1354 0 35.0106 0H29.4022C29.2721 0 29.1473 0.051798 29.0555 0.143949C29.0071 0.192465 28.9695 0.250588 28.945 0.314559L17.6888 30.6128C17.6486 30.7178 17.6738 30.8365 17.7531 30.9161C17.8067 30.9698 17.8794 31 17.9553 31H24.2912C24.4171 31 24.5379 30.9499 24.6269 30.8606C24.6763 30.811 24.7141 30.7511 24.7376 30.6851L26.8477 24.1095H37.5763L39.6855 30.6828C39.7095 30.7503 39.7484 30.8115 39.7993 30.8618C39.8887 30.9503 40.0094 31 40.1352 31H46.4715C46.5473 31 46.6201 30.9698 46.6736 30.9161C46.7529 30.8365 46.7781 30.7178 46.7379 30.6128L35.4567 0.306675C35.4321 0.242358 35.3938 0.184134 35.3445 0.135995ZM28.7681 18.0836L32.2007 7.964L35.6446 18.0836H28.7681Z" fill="#FFCC00"/>
<path d="M75.9712 9.4726C74.0896 9.51293 72.2489 10.031 70.621 10.9784V10.4962C70.621 10.3926 70.5793 10.2934 70.5052 10.221C70.4332 10.1505 70.3365 10.1111 70.2357 10.1111H64.9662C64.8674 10.1111 64.7728 10.1507 64.7035 10.2211C64.6357 10.29 64.5978 10.3827 64.5978 10.4794V21.3211L60.9512 23.6716C59.6469 24.641 58.0689 25.1684 56.4457 25.1774C54.7308 25.1774 53.2272 24.3299 53.2272 20.8719V15.5H60.7992C60.8965 15.5 60.9898 15.4613 61.0585 15.3924C61.1268 15.3238 61.1652 15.2309 61.1652 15.1341V10.7016C61.1652 10.605 61.1272 10.5123 61.0594 10.4434C60.9902 10.373 60.8955 10.3333 60.7968 10.3333H53.2272V5.5694C53.2272 5.47528 53.1942 5.38414 53.134 5.3118C53.0574 5.21985 52.9439 5.16667 52.8243 5.16667H47.5868C47.4895 5.16667 47.3962 5.2054 47.3276 5.2743C47.2592 5.34287 47.2208 5.43572 47.2208 5.53252V10.3277H43.9398C43.8411 10.3277 43.7464 10.3673 43.6772 10.4377C43.6094 10.5066 43.5714 10.5994 43.5714 10.696V15.1341C43.5714 15.2309 43.6098 15.3238 43.6782 15.3924C43.7468 15.4613 43.8401 15.5 43.9374 15.5H47.2208V21.5132C47.2208 27.1098 50.0086 30.9859 56.4457 30.9859C58.0946 30.9081 59.7061 30.4663 61.1652 29.6919L64.5978 27.5844V30.6341C64.5978 30.7309 64.6362 30.8238 64.7045 30.8924C64.7732 30.9613 64.8665 31 64.9638 31H70.2409C70.3382 31 70.4315 30.9613 70.5002 30.8924C70.5685 30.8238 70.6069 30.7309 70.6069 30.6341V17.414C71.2063 16.7521 71.934 16.2198 72.7455 15.8497C73.557 15.4795 74.4352 15.2793 75.3264 15.2613C76.3555 15.2613 78.1613 15.3644 79.4598 16.3305C79.5532 16.4 79.6843 16.3946 79.7665 16.3122C79.8104 16.2681 79.834 16.2079 79.8318 16.1458V10.3117C78.6298 9.72796 77.3063 9.44032 75.9712 9.4726Z" fill="#FFCC00"/>
<path d="M91.3094 9.47263C84.8723 9.47263 80.7948 14.2075 80.7948 20.0188C80.7948 26.2623 85.5171 31 92.5963 31C95.3869 31 98.3914 30.1525 100.323 28.8473V23.5772C100.323 23.5146 100.298 23.4547 100.254 23.4104C100.17 23.3257 100.036 23.3176 99.9401 23.3896C97.8242 24.9851 95.247 25.8487 92.5963 25.847C89.8086 25.847 87.4488 24.7706 86.804 21.7562H100.355C100.471 21.7562 100.583 21.7097 100.666 21.627C100.722 21.571 100.762 21.501 100.78 21.4241C100.965 20.631 100.965 19.9727 100.965 18.7418C100.974 14.6313 97.5326 9.47263 91.3094 9.47263ZM87.018 17.4366C87.6628 15.9308 88.7357 14.6398 91.3094 14.6398C93.2411 14.6398 94.742 15.9308 94.9701 17.4366H87.018Z" fill="#FFCC00"/>
<path d="M115.068 10.1167C114.943 10.1167 114.823 10.1665 114.735 10.2549C114.685 10.3053 114.647 10.3664 114.624 10.4336L110.584 22.1715L106.543 10.4359C106.519 10.3672 106.48 10.3049 106.428 10.2537C106.34 10.166 106.22 10.1167 106.095 10.1167H100.187C100.112 10.1167 100.04 10.1466 99.9867 10.1998C99.9071 10.2797 99.8827 10.3993 99.9246 10.504L107.756 30.6926C107.781 30.7538 107.818 30.8093 107.864 30.856C107.956 30.9482 108.081 31 108.211 31H112.954C113.085 31 113.209 30.9482 113.301 30.856C113.348 30.8093 113.384 30.7538 113.409 30.6926L121.243 10.5062C121.285 10.4003 121.26 10.2793 121.179 10.1989C121.126 10.1463 121.054 10.1167 120.979 10.1167H115.068Z" fill="#FFCC00"/>
<path d="M123.284 10.7637C123.187 10.7637 123.094 10.8024 123.025 10.8713C122.957 10.9399 122.918 11.0328 122.918 11.1296V30.6341C122.918 30.7309 122.957 30.8238 123.025 30.8924C123.094 30.9613 123.187 31 123.284 31H128.559C128.656 31 128.749 30.9617 128.818 30.8934C128.888 30.8242 128.927 30.73 128.927 30.6317V11.132C128.927 11.0337 128.888 10.9395 128.818 10.8703C128.749 10.802 128.656 10.7637 128.559 10.7637H123.284Z" fill="#FFCC00"/>
<path d="M126.288 0.151542C126.191 0.0545305 126.06 0 125.923 0C125.786 0 125.654 0.0545305 125.558 0.151542L121.997 3.724C121.9 3.82138 121.845 3.95324 121.845 4.09071C121.845 4.22824 121.9 4.36017 121.997 4.45756L125.557 8.02722C125.654 8.1242 125.786 8.17871 125.923 8.17871C126.06 8.17871 126.191 8.1242 126.288 8.02722L129.848 4.45756C129.945 4.36017 130 4.22824 130 4.09071C130 3.95324 129.946 3.82138 129.848 3.724L126.288 0.151542Z" fill="#FFCC00"/>
<path fill-rule="evenodd" clip-rule="evenodd" d="M5.0455 26.5252C4.41673 28.2123 5.21103 30.1145 6.81962 30.7741C8.42821 31.4335 10.242 30.6004 10.8707 28.9133L11.0146 28.5272C9.80657 28.3734 8.62889 28.0355 7.51965 27.5294C6.68197 27.1476 5.90315 26.6799 5.18901 26.1401L5.0455 26.5252ZM19.8349 4.86085C19.0519 4.26931 18.2084 3.77628 17.323 3.38956C17.2402 3.35323 17.1546 3.31694 17.0662 3.28068C16.0604 2.86836 15.0347 2.60191 14.01 2.47156L14.1535 2.08669C14.7822 0.399565 16.596 -0.433509 18.2046 0.225961C19.8132 0.885437 20.6075 2.78771 19.9787 4.47484L19.8349 4.86085Z" fill="#4E4B66"/>
<path fill-rule="evenodd" clip-rule="evenodd" d="M17.3248 3.39033C17.2414 3.35372 17.1553 3.31718 17.0661 3.28067C10.6318 0.642798 3.37686 3.9751 0.861767 10.7236C-1.59595 17.3181 1.3819 24.7346 7.52305 27.531C8.63129 28.0361 9.80781 28.3735 11.0146 28.5272L19.8349 4.86085C19.0526 4.26969 18.2096 3.77693 17.3248 3.39033Z" fill="#FFCC00"/>
<path d="M16.1485 14.7519L13.7521 21.1818C12.762 21.4894 11.7273 21.5705 10.9752 21.3784C10.8227 21.3437 10.7366 21.2612 10.7494 21.168L10.7991 18.6854C10.7813 18.5192 10.8643 18.4288 11.0106 18.4488C11.835 18.5237 12.7469 18.4363 13.3149 18.2277C13.7779 18.015 13.99 17.656 13.8495 17.3193C13.7261 17.0237 13.1709 17.0532 12.4407 17.0918C11.0369 17.1662 8.98586 17.2748 8.10941 15.1757C7.38818 13.4486 8.01772 11.694 9.69331 10.6278L9.4366 10.013C9.38771 9.89589 9.43173 9.75356 9.54747 9.7004L10.4445 9.2884C10.5747 9.2286 10.7042 9.29119 10.7531 9.40829L11.0037 10.0084C11.9641 9.7069 13.1213 9.62898 14.0875 9.79575C14.2337 9.81577 14.3261 9.91294 14.3133 10.0061L14.2636 12.4886C14.2813 12.6549 14.1984 12.7454 14.052 12.7254C13.1721 12.6411 12.219 12.7125 11.6943 12.9011C11.2458 13.1072 11.042 13.4449 11.1765 13.767C11.2995 14.0617 11.8543 14.03 12.5854 13.9884C13.663 13.9271 15.1236 13.844 16.1485 14.7519Z" fill="#4E4B66"/>
</svg>
