<svg width="114" height="27" viewBox="0 0 114 27" fill="none" xmlns="http://www.w3.org/2000/svg">
<path d="M30.9944 0.118447C30.9161 0.0425137 30.811 0 30.7016 0H25.7835C25.6693 0 25.5599 0.0451144 25.4794 0.125375C25.437 0.167631 25.404 0.218254 25.3825 0.273971L15.5116 26.6628C15.4764 26.7542 15.4985 26.8576 15.5681 26.9269C15.6151 26.9737 15.6789 27 15.7454 27H21.3014C21.4119 27 21.5178 26.9563 21.5958 26.8786C21.6392 26.8354 21.6724 26.7832 21.693 26.7257L23.5433 20.9986H32.9515L34.8011 26.7237C34.8222 26.7825 34.8563 26.8358 34.9009 26.8797C34.9793 26.9568 35.0851 27 35.1954 27H40.7519C40.8184 27 40.8822 26.9737 40.9291 26.9269C40.9987 26.8576 41.0208 26.7542 40.9855 26.6628L31.0928 0.267104C31.0711 0.211086 31.0376 0.160375 30.9944 0.118447ZM25.2274 15.7502L28.2375 6.93639L31.2575 15.7502H25.2274Z" fill="#1A224C"/>
<path d="M66.6208 8.25033C64.9709 8.28546 63.3567 8.73666 61.9291 9.56182V9.14185C61.9291 9.05165 61.8925 8.96525 61.8276 8.90215C61.7645 8.84079 61.6796 8.80642 61.5913 8.80642H56.9703C56.8837 8.80642 56.8007 8.84096 56.74 8.90228C56.6805 8.96227 56.6472 9.04304 56.6472 9.12718V18.57L53.4495 20.6172C52.3057 21.4615 50.9219 21.9209 49.4985 21.9287C47.9947 21.9287 46.6761 21.1905 46.6761 18.1788V13.5H53.3162C53.4015 13.5 53.4833 13.4663 53.5435 13.4063C53.6035 13.3465 53.6371 13.2657 53.6371 13.1813V9.32076C53.6371 9.23662 53.6038 9.15584 53.5444 9.09585C53.4837 9.03453 53.4007 9 53.314 9H46.6761V4.85076C46.6761 4.76879 46.6472 4.68941 46.5944 4.6264C46.5272 4.54632 46.4277 4.5 46.3228 4.5H41.73C41.6446 4.5 41.5628 4.53373 41.5026 4.59374C41.4426 4.65347 41.409 4.73434 41.409 4.81865V8.99508H38.5318C38.4452 8.99508 38.3622 9.02961 38.3015 9.09093C38.242 9.15092 38.2087 9.2317 38.2087 9.31584V13.1813C38.2087 13.2657 38.2424 13.3465 38.3023 13.4063C38.3626 13.4663 38.4444 13.5 38.5297 13.5H41.409V18.7373C41.409 23.6118 43.8536 26.9877 49.4985 26.9877C50.9445 26.92 52.3576 26.5352 53.6371 25.8607L56.6472 24.0251V26.6814C56.6472 26.7657 56.6809 26.8465 56.7408 26.9063C56.801 26.9663 56.8829 27 56.9682 27H61.5958C61.6812 27 61.763 26.9663 61.8232 26.9063C61.8831 26.8465 61.9168 26.7657 61.9168 26.6813V15.167C62.4424 14.5905 63.0806 14.1269 63.7922 13.8046C64.5038 13.4822 65.2739 13.3078 66.0554 13.2921C66.9579 13.2921 68.5414 13.3819 69.6801 14.2234C69.762 14.2839 69.877 14.2792 69.9491 14.2074C69.9875 14.169 70.0082 14.1166 70.0063 14.0625V8.98113C68.9522 8.47274 67.7916 8.22221 66.6208 8.25033Z" fill="#1A224C"/>
<path d="M80.0713 8.25035C74.4264 8.25035 70.8508 12.3743 70.8508 17.4357C70.8508 22.8736 74.9919 27 81.1998 27C83.6469 27 86.2817 26.2618 87.9756 25.125V20.5349C87.9756 20.4805 87.9539 20.4283 87.9152 20.3897C87.8412 20.3159 87.7234 20.3089 87.6397 20.3716C85.7843 21.7612 83.5242 22.5134 81.1998 22.5119C78.7551 22.5119 76.6858 21.5744 76.1204 18.949H88.0033C88.1057 18.949 88.2039 18.9085 88.2762 18.8364C88.3251 18.7877 88.3602 18.7267 88.376 18.6597C88.5386 17.9689 88.5386 17.3956 88.5386 16.3235C88.546 12.7434 85.5285 8.25035 80.0713 8.25035ZM76.308 15.1867C76.8735 13.8752 77.8143 12.7508 80.0713 12.7508C81.7653 12.7508 83.0814 13.8752 83.2814 15.1867H76.308Z" fill="#1A224C"/>
<path d="M100.906 8.81136C100.796 8.81136 100.691 8.85466 100.614 8.9317C100.57 8.97557 100.536 9.02879 100.516 9.08734L96.9737 19.3107L93.4296 9.08929C93.4089 9.02947 93.3746 8.9752 93.3293 8.93068C93.2516 8.85424 93.1466 8.81136 93.0372 8.81136H87.856C87.7902 8.81136 87.7271 8.83738 87.6806 8.88368C87.6108 8.95327 87.5894 9.05745 87.6262 9.14863L94.494 26.7323C94.5155 26.7855 94.5476 26.8339 94.5884 26.8746C94.669 26.9549 94.7784 27 94.8925 27H99.0523C99.1665 27 99.2759 26.9549 99.3565 26.8746C99.3973 26.8339 99.4294 26.7855 99.4509 26.7323L106.32 9.15058C106.358 9.05832 106.336 8.9529 106.264 8.88295C106.218 8.83709 106.155 8.81136 106.089 8.81136H100.906Z" fill="#1A224C"/>
<path d="M108.111 9.37483C108.025 9.37483 107.944 9.40856 107.883 9.46857C107.823 9.5283 107.79 9.60917 107.79 9.69348V26.6813C107.79 26.7657 107.823 26.8465 107.883 26.9063C107.944 26.9663 108.025 27 108.111 27H112.736C112.821 27 112.903 26.9666 112.964 26.9071C113.025 26.8469 113.059 26.7648 113.059 26.6793V9.69557C113.059 9.60999 113.025 9.52795 112.964 9.46771C112.903 9.40821 112.821 9.37483 112.736 9.37483H108.111Z" fill="#1A224C"/>
<path d="M110.745 0.131988C110.66 0.0474943 110.545 0 110.424 0C110.304 0 110.189 0.0474943 110.104 0.131988L106.982 3.24348C106.897 3.3283 106.849 3.44315 106.849 3.56288C106.849 3.68266 106.897 3.79756 106.982 3.88239L110.104 6.99145C110.189 7.07592 110.304 7.12339 110.424 7.12339C110.545 7.12339 110.66 7.07592 110.745 6.99145L113.867 3.88239C113.952 3.79757 114 3.68266 114 3.56288C114 3.44315 113.952 3.3283 113.867 3.24348L110.745 0.131988Z" fill="#1A224C"/>
<path fill-rule="evenodd" clip-rule="evenodd" d="M4.42428 23.1026C3.87289 24.572 4.56943 26.2288 5.98004 26.8032C7.39065 27.3776 8.98117 26.652 9.53255 25.1826L9.6587 24.8463C8.59936 24.7123 7.56663 24.418 6.59391 23.9772C5.85933 23.6447 5.17637 23.2374 4.55012 22.7672L4.42428 23.1026ZM17.3934 4.23364C16.7068 3.71844 15.9671 3.28902 15.1907 2.9522C15.1181 2.92055 15.043 2.88894 14.9655 2.85737C14.0835 2.49825 13.184 2.26618 12.2854 2.15265L12.4113 1.81744C12.9626 0.348008 14.5532 -0.377573 15.9638 0.196805C17.3744 0.771187 18.0709 2.42801 17.5196 3.89744L17.3934 4.23364Z" fill="#1A224C"/>
<path fill-rule="evenodd" clip-rule="evenodd" d="M15.1925 2.95291C15.1194 2.92103 15.0438 2.88921 14.9657 2.85741C9.3233 0.559903 2.96125 3.46223 0.755703 9.33995C-1.39953 15.0836 1.21182 21.5431 6.59714 23.9786C7.56898 24.4186 8.6007 24.7124 9.65896 24.8463L17.3937 4.23369C16.7076 3.71881 15.9684 3.28963 15.1925 2.95291Z" fill="#FFF6D5"/>
<path d="M14.1608 12.8484L12.0593 18.4487C11.1911 18.7166 10.2838 18.7872 9.62418 18.6198C9.49053 18.5896 9.41495 18.5178 9.42621 18.4366L9.46976 16.2744C9.45422 16.1296 9.52695 16.0508 9.65525 16.0683C10.3782 16.1335 11.1778 16.0574 11.676 15.8757C12.0819 15.6905 12.268 15.3777 12.1447 15.0845C12.0365 14.8271 11.5497 14.8527 10.9093 14.8864C9.67833 14.9512 7.87972 15.0458 7.11114 13.2176C6.47868 11.7132 7.03073 10.1851 8.5001 9.25644L8.27499 8.72097C8.23211 8.61898 8.27072 8.49501 8.37221 8.44871L9.1588 8.08987C9.27298 8.03779 9.38661 8.09231 9.42949 8.19429L9.64924 8.71701C10.4914 8.45438 11.5061 8.3865 12.3535 8.53175C12.4817 8.5492 12.5627 8.63383 12.5514 8.71494L12.5079 10.8772C12.5234 11.022 12.4507 11.1008 12.3224 11.0834C11.5507 11.0099 10.715 11.0721 10.2548 11.2364C9.86154 11.4159 9.68284 11.7101 9.80075 11.9906C9.90864 12.2473 10.3952 12.2197 11.0362 12.1834C11.9812 12.13 13.262 12.0576 14.1608 12.8484Z" fill="#1A224C"/>
</svg>
